<svg width="24" height="24" viewBox="0 0 24 24" fill="none" xmlns="http://www.w3.org/2000/svg">
<path d="M8.18865 2.01624C10.8094 2.16624 11.6778 4.13624 11.9947 5.02924C12.4704 6.37024 11.9889 9.02323 11.9889 9.02323L17.6148 9.02521C18.6141 9.02521 19.9789 9.92522 19.9975 11.2332C20.0123 12.2812 19.51 12.9502 19.024 13.4872C19.8584 14.2302 19.9975 15.0032 19.9975 15.8072C19.9975 16.6242 19.5578 17.4672 18.9617 18.0272C18.9918 19.8432 18.0597 21.0352 16.4282 21.5792C15.348 21.9402 14.3621 22.0172 11.9936 22.0172C7.44445 22.0172 4.06555 18.6252 3.99895 14.0172C3.96865 11.9162 4.53955 10.0282 5.67605 7.94422C7.21225 5.12822 7.00225 3.69023 7.01085 2.99823C7.01715 2.48523 7.49845 1.97724 8.18865 2.01624Z" fill="#2A343D"/>
</svg>
