<svg width="24" height="24" viewBox="0 0 24 24" fill="none" xmlns="http://www.w3.org/2000/svg">
<path d="M8.18891 21.9846C10.8099 21.8346 11.6779 19.8646 11.9949 18.9716C12.4709 17.6306 11.9889 14.9776 11.9889 14.9776L17.6149 14.9757C18.6139 14.9757 19.9789 14.0757 19.9979 12.7677C20.0129 11.7197 19.5099 11.0507 19.0239 10.5137C19.8589 9.77065 19.9979 8.99764 19.9979 8.19364C19.9979 7.37664 19.5579 6.53364 18.9619 5.97364C18.9919 4.15764 18.0599 2.96563 16.4279 2.42163C15.3479 2.06063 14.3619 1.98364 11.9939 1.98364C7.44492 1.98364 4.06593 5.37565 3.99893 9.98365C3.96893 12.0847 4.53991 13.9727 5.67591 16.0567C7.21191 18.8727 7.00192 20.3106 7.01092 21.0026C7.01692 21.5156 7.49891 22.0236 8.18891 21.9846Z" fill="#F44336"/>
</svg>
