<svg width="24" height="24" viewBox="0 0 24 24" fill="none" xmlns="http://www.w3.org/2000/svg">
<path d="M7.9978 2.01413C10.7072 2.01413 12.3841 2.73112 12.9666 4.73312C13.0978 5.18412 13.1558 5.68612 13.1853 6.23312C13.2166 6.81412 13.1909 7.39813 13.134 7.99713L16.9978 8.01413C18.6547 8.01413 19.9978 9.35713 19.9978 11.0141C19.9978 11.7461 19.6781 12.4531 19.1919 12.9911C19.706 13.5301 19.9978 14.2111 19.9978 15.0141C19.9978 15.8321 19.5747 16.6271 18.9782 17.1871C18.9782 17.4321 18.9978 17.8581 18.9978 18.0141C18.9978 19.8531 18.068 21.0321 16.4353 21.5761C15.3544 21.9371 14.3678 22.0141 11.9978 22.0141C7.4455 22.0141 3.9978 18.5661 3.9978 14.0141C3.9978 11.7411 4.4031 10.4531 5.5916 8.07614C6.6531 5.95314 6.9978 4.90813 6.9978 3.01413C6.9978 2.46213 7.4455 2.01413 7.9978 2.01413ZM8.9623 4.05511C8.8227 5.65211 8.365 7.03012 7.40401 8.95212C6.3425 11.0751 5.9978 12.1201 5.9978 14.0141C5.9978 17.4621 8.5501 20.0141 11.9978 20.0141C15.9481 20.0141 16.9978 19.6641 16.9978 18.0141C16.8442 18.0141 16.1235 18.0141 15.9978 18.0141C15.4455 18.0141 14.9978 17.5661 14.9978 17.0141C14.9978 16.4621 15.4455 16.0141 15.9978 16.0141C16.1235 16.0141 16.8442 16.0141 16.9978 16.0141C17.4539 16.0141 17.9978 15.4741 17.9978 15.0141C17.9978 14.4621 17.5501 14.0141 16.9978 14.0141C16.8501 14.0141 16.1232 14.0141 15.9978 14.0141C15.4455 14.0141 14.9978 13.5661 14.9978 13.0141C14.9978 12.4621 15.4455 12.0141 15.9978 12.0141C16.1232 12.0141 16.8501 12.0141 16.9978 12.0141C17.4618 12.0141 17.9978 11.4851 17.9978 11.0141C17.9978 10.4621 17.5501 10.0141 16.9978 10.0141H11.9978C11.9521 10.0141 11.5467 10.0111 11.2166 9.60812C10.8864 9.20412 11.0248 8.84814 11.029 8.82614C11.0505 8.71614 11.0876 8.51612 11.1228 8.23312C11.202 7.59612 11.2171 6.94812 11.1853 6.35812C11.1635 5.95312 11.1133 5.58514 11.029 5.29514C10.8179 4.56914 10.2039 4.12211 8.9623 4.05511Z" fill="#2A343D"/>
</svg>
