<svg width="24" height="24" viewBox="0 0 24 24" fill="none" xmlns="http://www.w3.org/2000/svg" >
<path d="M7.9978 22.0141C10.7068 22.0141 12.3838 21.2971 12.9668 19.2951C13.0978 18.8441 13.1558 18.3421 13.1858 17.7951C13.2168 17.2141 13.1908 16.6301 13.1338 16.0311L16.9978 16.0141C18.6548 16.0141 19.9978 14.6711 19.9978 13.0141C19.9978 12.2821 19.6778 11.5751 19.1918 11.0371C19.7058 10.4981 19.9978 9.81713 19.9978 9.01413C19.9978 8.19613 19.5748 7.40113 18.9778 6.84113C18.9778 6.59613 18.9978 6.17013 18.9978 6.01413C18.9978 4.17513 18.0678 2.99612 16.4358 2.45212C15.3548 2.09112 14.3678 2.01413 11.9978 2.01413C7.4455 2.01413 3.9978 5.46213 3.9978 10.0141C3.9978 12.2871 4.40311 13.5751 5.59161 15.9521C6.65311 18.0751 6.9978 19.1201 6.9978 21.0141C6.9978 21.5661 7.4455 22.0141 7.9978 22.0141ZM8.9623 19.9731C8.8227 18.3761 8.365 16.9981 7.404 15.0761C6.3425 12.9531 5.9978 11.9081 5.9978 10.0141C5.9978 6.56613 8.5501 4.01413 11.9978 4.01413C15.9478 4.01413 16.9978 4.36413 16.9978 6.01413C16.8438 6.01413 16.1238 6.01413 15.9978 6.01413C15.4458 6.01413 14.9978 6.46213 14.9978 7.01413C14.9978 7.56613 15.4458 8.01413 15.9978 8.01413C16.1238 8.01413 16.8438 8.01413 16.9978 8.01413C17.4538 8.01413 17.9978 8.55413 17.9978 9.01413C17.9978 9.56613 17.5498 10.0141 16.9978 10.0141C16.8498 10.0141 16.1228 10.0141 15.9978 10.0141C15.4458 10.0141 14.9978 10.4621 14.9978 11.0141C14.9978 11.5661 15.4458 12.0141 15.9978 12.0141C16.1228 12.0141 16.8498 12.0141 16.9978 12.0141C17.4618 12.0141 17.9978 12.5431 17.9978 13.0141C17.9978 13.5661 17.5498 14.0141 16.9978 14.0141H11.9978C11.9518 14.0141 11.5468 14.0171 11.2168 14.4201C10.8868 14.8241 11.0248 15.1801 11.0288 15.2021C11.0508 15.3121 11.0878 15.5121 11.1228 15.7951C11.2018 16.4321 11.2168 17.0801 11.1858 17.6701C11.1638 18.0751 11.1128 18.4431 11.0288 18.7331C10.8178 19.4591 10.2038 19.9061 8.9623 19.9731Z" fill="#F44336"/>
</svg>
